<svg  viewBox="0 0 177 109" fill="none" xmlns="http://www.w3.org/2000/svg">
<path d="M38.474 59.548C38.99 61.4973 38.9613 63.3033 38.388 64.966C37.872 66.686 36.9547 68.1767 35.636 69.438C34.3173 70.7567 32.626 71.846 30.562 72.706C28.498 73.6233 26.176 74.2827 23.596 74.684V73.91C26.1187 73.5087 28.24 72.792 29.96 71.76C31.68 70.728 32.97 69.61 33.83 68.406C34.7473 67.2593 35.2633 66.1413 35.378 65.052C35.55 64.02 35.3207 63.3033 34.69 62.902C34.4033 62.6727 33.9447 62.558 33.314 62.558C32.282 62.558 30.9347 62.8447 29.272 63.418C27.6667 63.9913 25.9467 64.6793 24.112 65.482C22.3347 66.2847 20.5573 67.116 18.78 67.976C17.0027 68.836 15.4547 69.524 14.136 70.04C12.5307 70.728 10.8967 71.072 9.234 71.072C7.57133 71.072 6.052 70.5847 4.676 69.61C3.35733 68.6927 2.41133 67.1447 1.838 64.966C1.20733 62.73 1.17867 60.1787 1.752 57.312C2.32533 54.4453 3.902 51.1487 6.482 47.422C4.99133 45.702 3.816 43.7527 2.956 41.574C2.096 39.338 1.666 36.9587 1.666 34.436C1.666 31.7987 2.12467 29.3333 3.042 27.04C3.95933 24.7467 5.22067 22.74 6.826 21.02C8.43133 19.3 10.2947 17.9527 12.416 16.978C14.5947 16.0033 16.9167 15.516 19.382 15.516C22.478 15.516 25.2873 16.2613 27.81 17.752L35.378 14.226L36.496 17.236L28.842 18.354C31.3647 20.0167 33.3713 22.2527 34.862 25.062C36.41 27.8713 37.184 30.996 37.184 34.436C37.184 37.016 36.6967 39.4527 35.722 41.746C34.8047 44.0393 33.5433 46.046 31.938 47.766C30.3327 49.486 28.4407 50.862 26.262 51.894C24.1407 52.8687 21.8473 53.356 19.382 53.356C16.974 53.356 14.738 52.8973 12.674 51.98C10.6673 51.0627 8.86133 49.8013 7.256 48.196C6.33867 49.5147 5.56467 50.8907 4.934 52.324C4.36067 53.5853 3.902 54.99 3.558 56.538C3.27133 58.086 3.32867 59.6913 3.73 61.354C3.902 62.2713 4.246 62.902 4.762 63.246C5.278 63.59 5.90867 63.762 6.654 63.762C7.39933 63.762 8.202 63.6187 9.062 63.332C9.97933 63.0453 10.8967 62.7013 11.814 62.3C12.846 61.8413 14.0787 61.268 15.512 60.58C17.0027 59.9493 18.4647 59.29 19.898 58.602C21.3887 57.914 22.7647 57.312 24.026 56.796C25.2873 56.2227 26.2047 55.8213 26.778 55.592C27.638 55.248 28.4693 55.0187 29.272 54.904C30.132 54.732 30.9633 54.646 31.766 54.646C33.4287 54.646 34.8333 55.0473 35.98 55.85C37.184 56.6527 38.0153 57.8853 38.474 59.548ZM19.382 16.376C17.9487 16.376 16.6013 16.8633 15.34 17.838C14.0787 18.7553 12.9607 20.0453 11.986 21.708C11.0687 23.3133 10.3233 25.2053 9.75 27.384C9.234 29.5627 8.976 31.9133 8.976 34.436C8.976 36.9013 9.234 39.252 9.75 41.488C10.3233 43.6667 11.0687 45.5873 11.986 47.25C12.9607 48.8553 14.0787 50.1453 15.34 51.12C16.6013 52.0373 17.9487 52.496 19.382 52.496C20.8153 52.496 22.1627 52.0373 23.424 51.12C24.6853 50.1453 25.7747 48.8553 26.692 47.25C27.6667 45.5873 28.412 43.6667 28.928 41.488C29.5013 39.252 29.788 36.9013 29.788 34.436C29.788 31.9133 29.5013 29.5627 28.928 27.384C28.412 25.2053 27.6667 23.3133 26.692 21.708C25.7747 20.0453 24.6853 18.7553 23.424 17.838C22.1627 16.8633 20.8153 16.376 19.382 16.376ZM62.1704 15.516C64.9224 15.516 67.5024 16.0893 69.9104 17.236C72.3757 18.3253 74.497 19.8447 76.2744 21.794C78.109 23.686 79.5424 25.9507 80.5744 28.588C81.6064 31.168 82.1224 33.9487 82.1224 36.93C82.1224 39.854 81.6064 42.6347 80.5744 45.272C79.5424 47.852 78.109 50.1167 76.2744 52.066C74.497 53.958 72.3757 55.4773 69.9104 56.624C67.5024 57.7133 64.9224 58.258 62.1704 58.258C59.4184 58.258 56.8097 57.7133 54.3444 56.624C51.9364 55.4773 49.815 53.958 47.9804 52.066C46.203 50.1167 44.7697 47.852 43.6804 45.272C42.6484 42.6347 42.1324 39.854 42.1324 36.93C42.1324 33.9487 42.6484 31.168 43.6804 28.588C44.7697 25.9507 46.203 23.686 47.9804 21.794C49.815 19.8447 51.9364 18.3253 54.3444 17.236C56.8097 16.0893 59.4184 15.516 62.1704 15.516ZM62.1704 57.312C63.7757 57.312 65.295 56.796 66.7284 55.764C68.1617 54.6747 69.3944 53.2127 70.4264 51.378C71.5157 49.486 72.347 47.3073 72.9204 44.842C73.551 42.3767 73.8664 39.7393 73.8664 36.93C73.8664 34.1207 73.551 31.4833 72.9204 29.018C72.347 26.5527 71.5157 24.4027 70.4264 22.568C69.3944 20.676 68.1617 19.214 66.7284 18.182C65.295 17.0927 63.7757 16.548 62.1704 16.548C60.565 16.548 59.0457 17.0927 57.6124 18.182C56.179 19.214 54.9177 20.676 53.8284 22.568C52.739 24.4027 51.879 26.5527 51.2484 29.018C50.675 31.4833 50.3884 34.1207 50.3884 36.93C50.3884 39.7393 50.675 42.3767 51.2484 44.842C51.879 47.3073 52.739 49.486 53.8284 51.378C54.9177 53.2127 56.179 54.6747 57.6124 55.764C59.0457 56.796 60.565 57.312 62.1704 57.312ZM122.084 49.744C122.084 50.3173 122.113 50.9193 122.17 51.55C122.285 52.1807 122.514 52.754 122.858 53.27C123.202 53.786 123.689 54.216 124.32 54.56C125.008 54.904 125.925 55.076 127.072 55.076V55.592L118.816 57.742C118.013 57.742 117.297 57.5413 116.666 57.14C116.093 56.6813 115.634 56.1367 115.29 55.506C114.029 56.2513 112.509 56.9393 110.732 57.57C108.955 58.2007 107.005 58.516 104.884 58.516C102.247 58.516 99.7815 58 97.4881 56.968C95.2521 55.8787 93.3028 54.388 91.6401 52.496C90.0348 50.604 88.7735 48.368 87.8561 45.788C86.9388 43.208 86.4801 40.37 86.4801 37.274C86.4801 34.2353 86.9675 31.3973 87.9421 28.76C88.9168 26.1227 90.2641 23.858 91.9841 21.966C93.7041 20.0167 95.7108 18.4973 98.0041 17.408C100.355 16.2613 102.877 15.688 105.572 15.688C107.579 15.688 109.356 15.946 110.904 16.462C112.452 16.978 113.799 17.6087 114.946 18.354V5.282C114.946 4.47933 114.659 3.82 114.086 3.304C113.57 2.73066 112.911 2.444 112.108 2.444H109.958V1.928L122.17 0.809998L122.084 49.744ZM107.464 56.796C108.84 56.796 110.159 56.5667 111.42 56.108C112.739 55.592 113.914 55.0187 114.946 54.388C114.946 54.2733 114.917 54.1873 114.86 54.13C114.86 54.0153 114.86 53.9007 114.86 53.786L114.946 19.558C114.029 18.9273 112.997 18.4113 111.85 18.01C110.703 17.5513 109.442 17.322 108.066 17.322C104.282 17.322 101.129 19.214 98.6061 22.998C96.0835 26.7247 94.8221 31.512 94.8221 37.36C94.8221 39.1373 95.0515 41.144 95.5101 43.38C96.0261 45.616 96.7715 47.7373 97.7461 49.744C98.7781 51.6933 100.097 53.356 101.702 54.732C103.307 56.108 105.228 56.796 107.464 56.796Z" fill="white"/>
<path d="M115.23 105.076L115.316 105.592L106.458 107.742C105.483 107.742 104.681 107.427 104.05 106.796C103.419 106.108 103.104 105.277 103.104 104.302L103.018 77.9C103.018 76.6387 102.817 75.3773 102.416 74.116C102.015 72.8547 101.413 71.7367 100.61 70.762C99.8073 69.7873 98.7753 68.9847 97.514 68.354C96.2527 67.7233 94.762 67.408 93.042 67.408C91.0353 67.408 89.2867 67.8953 87.796 68.87C86.3627 69.8447 85.1587 70.8193 84.184 71.794C85.56 74.202 86.248 76.9827 86.248 80.136V101.808C86.248 102.439 86.2767 102.983 86.334 103.442C86.3913 103.843 86.592 104.187 86.936 104.474C87.28 104.703 87.7673 104.875 88.398 104.99C89.086 105.047 90.032 105.076 91.236 105.076V105.592L82.378 107.742C81.4033 107.742 80.6007 107.427 79.97 106.796C79.3393 106.108 79.024 105.277 79.024 104.302V77.9C79.024 76.6387 78.8233 75.3773 78.422 74.116C78.0207 72.7973 77.39 71.622 76.53 70.59C75.7273 69.558 74.6953 68.7553 73.434 68.182C72.23 67.5513 70.768 67.2933 69.048 67.408C67.7293 67.5227 66.468 67.924 65.264 68.612C64.1173 69.2427 63.0853 69.9307 62.168 70.676C61.1933 71.5933 60.276 72.5967 59.416 73.686V101.808C59.416 102.439 59.4447 103.098 59.502 103.786C59.6167 104.417 59.8173 104.99 60.104 105.506C60.448 106.022 60.9353 106.452 61.566 106.796C62.254 107.083 63.2 107.226 64.404 107.226V107.742H47.204V107.226C48.3507 107.226 49.2393 107.054 49.87 106.71C50.558 106.366 51.074 105.936 51.418 105.42C51.762 104.904 51.9627 104.359 52.02 103.786C52.1347 103.155 52.192 102.553 52.192 101.98V70.934C52.192 70.1313 51.9053 69.472 51.332 68.956C50.816 68.3827 50.1567 68.096 49.354 68.096H47.204V67.58L59.416 66.462V72.31C60.3333 71.0487 61.394 69.9307 62.598 68.956C63.63 68.096 64.8913 67.322 66.382 66.634C67.93 65.946 69.7073 65.602 71.714 65.602C74.638 65.602 77.046 66.0893 78.938 67.064C80.8873 68.0387 82.4353 69.3573 83.582 71.02C84.9007 69.7013 86.5633 68.4687 88.57 67.322C90.634 66.1753 93.0133 65.602 95.708 65.602C98.2307 65.602 100.409 65.9747 102.244 66.72C104.079 67.4653 105.598 68.4973 106.802 69.816C108.006 71.1347 108.895 72.6827 109.468 74.46C110.041 76.2373 110.328 78.1293 110.328 80.136V101.808C110.328 102.439 110.357 102.983 110.414 103.442C110.471 103.843 110.672 104.187 111.016 104.474C111.36 104.703 111.847 104.875 112.478 104.99C113.166 105.047 114.112 105.076 115.316 105.076H115.23ZM152.869 100.518C152.869 101.321 152.869 102.009 152.869 102.582C152.926 103.155 153.07 103.643 153.299 104.044C153.528 104.388 153.872 104.646 154.331 104.818C154.847 104.99 155.535 105.076 156.395 105.076V105.592L150.891 107.742C149.572 107.742 148.54 107.513 147.795 107.054C147.05 106.595 146.476 106.108 146.075 105.592C145.616 104.961 145.33 104.245 145.215 103.442V100.088C144.928 100.948 144.412 101.865 143.667 102.84C142.922 103.757 141.976 104.646 140.829 105.506C139.682 106.309 138.335 106.968 136.787 107.484C135.296 108 133.605 108.258 131.713 108.258C130.796 108.258 129.764 108.172 128.617 108C127.528 107.828 126.324 107.398 125.005 106.71C123.744 105.965 122.568 104.99 121.479 103.786C120.39 102.582 119.472 101.177 118.727 99.572C118.039 97.9093 117.695 96.1033 117.695 94.154C117.695 91.5167 118.24 89.338 119.329 87.618C120.476 85.8407 121.88 84.436 123.543 83.404C125.263 82.372 127.069 81.6553 128.961 81.254C130.91 80.8527 132.688 80.652 134.293 80.652C137.102 80.652 139.252 80.394 140.743 79.878C142.234 79.362 143.294 78.7313 143.925 77.986C144.613 77.1833 144.986 76.3233 145.043 75.406C145.158 74.4887 145.215 73.6573 145.215 72.912C145.215 72.052 144.9 71.2493 144.269 70.504C143.696 69.7013 142.979 68.9847 142.119 68.354C141.259 67.7233 140.313 67.236 139.281 66.892C138.306 66.4907 137.418 66.29 136.615 66.29C134.207 66.29 132.344 66.7487 131.025 67.666C129.764 68.526 128.76 69.6153 128.015 70.934C127.27 72.1953 126.668 73.514 126.209 74.89C125.75 76.2087 125.12 77.3553 124.317 78.33C124.03 78.7313 123.658 79.018 123.199 79.19C122.798 79.362 122.368 79.448 121.909 79.448C121.393 79.448 120.877 79.3333 120.361 79.104C119.902 78.8747 119.53 78.5593 119.243 78.158C118.956 77.6993 118.784 77.212 118.727 76.696C118.67 76.1227 118.842 75.492 119.243 74.804C120.734 71.9947 123.027 69.73 126.123 68.01C129.219 66.29 132.716 65.43 136.615 65.43C141.431 65.43 145.33 66.6627 148.311 69.128C151.35 71.5933 152.869 75.2913 152.869 80.222V100.518ZM145.215 77.642C144.986 78.3873 144.441 79.0753 143.581 79.706C142.836 80.222 141.718 80.7093 140.227 81.168C138.794 81.5693 136.758 81.77 134.121 81.77C132.573 81.77 131.111 82.0567 129.735 82.63C128.416 83.2033 127.298 84.006 126.381 85.038C125.464 86.07 124.833 87.3313 124.489 88.822C124.202 90.3127 124.26 92.004 124.661 93.896C125.005 95.5013 125.607 96.992 126.467 98.368C127.327 99.6867 128.33 100.805 129.477 101.722C130.624 102.639 131.856 103.356 133.175 103.872C134.494 104.388 135.784 104.646 137.045 104.646C138.88 104.646 140.514 104.13 141.947 103.098C143.438 102.009 144.527 100.289 145.215 97.938V77.642ZM176.924 106.28C175.605 106.911 174.172 107.369 172.624 107.656C171.133 107.885 169.7 107.914 168.324 107.742C166.202 107.455 164.54 106.624 163.336 105.248C162.189 103.872 161.616 101.894 161.616 99.314V67.58H156.714V66.462H157.574C159.408 66.462 160.985 66.0033 162.304 65.086C163.622 64.1113 164.683 63.0507 165.486 61.904C166.403 60.5853 167.177 59.0947 167.808 57.432H168.926V66.462H176.236V67.58H168.926V99.572C168.926 101.521 169.499 103.069 170.646 104.216C171.792 105.363 173.111 105.936 174.602 105.936C175.232 105.936 175.92 105.793 176.666 105.506L176.924 106.28Z" fill="white"/>
</svg>
