<svg width="70" height="70" viewBox="0 0 70 70" fill="none" xmlns="http://www.w3.org/2000/svg">
<path fill-rule="evenodd" clip-rule="evenodd" d="M46.6774 1.99537C46.5434 3.99455 47.6566 6.34152 50.4293 8.00513C48.2807 11.2696 49.0519 12.3676 51.8294 15.3551C50.4034 19.9189 51.2547 21.5683 56.0294 22.7051C57.948 28.6421 59.5425 29.5704 63.3794 26.9051C65.8337 29.7641 67.5862 30.3789 69.633 29.9131C69.8748 31.5738 70 33.2723 70 35C70 54.33 54.33 70 35 70C15.67 70 0 54.33 0 35C0 15.67 15.67 0 35 0C39.0948 0 43.0253 0.703178 46.6774 1.99537Z" fill="#F39F93"/>
<path d="M17.9487 45.5261L24.8683 26.0255C24.8996 25.9374 25.0238 25.9365 25.0563 26.0241L32.2409 45.3913C32.2652 45.4566 32.2168 45.5261 32.1472 45.5261H22.7295" stroke="black" stroke-width="3"/>
<path d="M29.7413 25.1282L36.6608 44.3141C36.6923 44.4016 36.8158 44.4024 36.8485 44.3153L40.4877 34.6107C40.5197 34.5254 40.6397 34.5238 40.674 34.6082L44.6248 44.3332C44.659 44.4175 44.7789 44.416 44.811 44.3309L52.0004 25.2635C52.025 25.1981 51.9767 25.1282 51.9068 25.1282H34.522" stroke="black" stroke-width="3"/>
</svg>
