<svg width="18" height="22" viewBox="0 0 18 22" fill="none" xmlns="http://www.w3.org/2000/svg">
<path d="M5.00555 21.9942L2.99856 21.9988L3.02294 8.25587L2.72406 8.24232C2.46117 8.24385 2.20081 8.19335 1.95799 8.09373C1.71516 7.99411 1.49467 7.84735 1.3092 7.66188C1.12374 7.47642 0.976968 7.25592 0.87735 7.01309C0.777732 6.77027 0.727233 6.50991 0.728763 6.24702L0.721621 0.0481542L2.03828 0.0380189L2.04191 4.66404L3.39418 4.64671L3.39765 0.0277867L4.70718 0.0247856L4.68948 4.64374L6.04168 4.65488L6.05941 0.0216853L7.38315 0.0328838L7.34758 6.23185C7.34504 7.3421 6.44624 8.2409 5.34312 8.23632L5.04417 8.25123L5.00555 21.9942Z" fill="black"/>
<path d="M15.1157 0.0311623C14.3547 0.0341872 13.624 0.33914 13.0841 0.879036C12.5442 1.41893 12.2392 2.14962 12.2362 2.9106L12.233 3.87172L12.2009 13.4423L15.0707 13.4327L15.0419 22.0421L16.9573 22.0425L17.0247 1.94021C17.0297 0.451151 16.6047 0.026169 16.0768 0.0279391L15.1157 0.0311623Z" fill="black"/>
</svg>