<svg width="192" height="128" viewBox="0 0 192 128" fill="none" xmlns="http://www.w3.org/2000/svg">
<path d="M18.3675 127L9.765 116.398H5.6575V127H3.007V104.06H5.6575V114.057H9.8115L17.7785 104.06H20.7235L11.8575 115.173L21.4055 127H18.3675ZM32.8106 127V104.06H35.4611V127H32.8106ZM55.7436 127V106.261H47.1876V104.06H66.9501V106.261H58.3941V127H55.7436ZM87.869 127.295C84.149 127.295 81.2608 126.354 79.2045 124.473C77.1585 122.593 76.1355 119.627 76.1355 115.576C76.1355 112.941 76.6108 110.746 77.5615 108.989C78.5122 107.232 79.8762 105.925 81.6535 105.067C83.4412 104.199 85.5957 103.765 88.117 103.765C89.171 103.765 90.1579 103.827 91.0775 103.951C91.9972 104.075 92.9272 104.267 93.8675 104.525V106.788C92.0592 106.282 90.1837 106.028 88.241 106.028C85.172 106.028 82.8522 106.793 81.2815 108.322C79.7108 109.841 78.9255 112.239 78.9255 115.514C78.9255 118.883 79.7005 121.311 81.2505 122.799C82.8108 124.287 85.0635 125.031 88.0085 125.031C89.0419 125.031 90.0184 124.959 90.938 124.814C91.868 124.67 92.8445 124.432 93.8675 124.101V126.364C92.0488 126.985 90.0493 127.295 87.869 127.295ZM106.146 127V104.06H108.797V114.057H122.762V104.06H125.413V127H122.762V116.398H108.797V127H106.146ZM142.43 124.861H155.946V127H139.795V104.06H155.791V106.199H142.43V114.166H154.21V116.289H142.43V124.861ZM186.029 104.06H188.556V127H185.828L171.428 107.749V127H168.902V104.06H171.63L186.029 123.311V104.06Z" fill="black"/>
<path d="M182 5L138.5 86L121.478 54.3043L110.843 34.5M8 5L51.5 86L68.5217 54.3043L79.1574 34.5M79.1574 34.5L95 5L110.843 34.5M79.1574 34.5H110.843" stroke="black" strokeWidth="4"/>
</svg>
